<?xml version="1.0" standalone="no"?>
<!DOCTYPE svg PUBLIC "-//W3C//DTD SVG 20010904//EN"
 "http://www.w3.org/TR/2001/REC-SVG-20010904/DTD/svg10.dtd">
<svg version="1.0" xmlns="http://www.w3.org/2000/svg"
 width="1024.000000pt" height="1024.000000pt" viewBox="0 0 1024.000000 1024.000000"
 preserveAspectRatio="xMidYMid meet">

<g transform="translate(0.000000,1024.000000) scale(0.100000,-0.100000)"
fill="#000000" stroke="#ffffff">
<path d="M0 5120 l0 -5120 5120 0 5120 0 0 5120 0 5120 -5120 0 -5120 0 0
-5120z m4822 4841 c239 -65 475 -226 598 -409 19 -28 38 -52 41 -52 4 0 19 19
34 41 45 68 181 204 258 257 192 132 384 192 617 192 305 0 565 -111 774 -331
132 -139 224 -304 266 -483 11 -43 20 -80 22 -81 2 -2 32 4 68 13 102 26 380
22 483 -6 396 -109 683 -393 788 -780 15 -56 22 -121 26 -235 l6 -158 47 -24
c26 -13 84 -51 128 -84 195 -148 328 -350 394 -601 25 -98 35 -291 19 -401
-21 -147 -89 -320 -175 -448 l-36 -53 52 -82 c103 -161 156 -327 165 -522 7
-143 -7 -251 -47 -375 -64 -196 -179 -367 -333 -497 l-38 -33 15 -47 c9 -26
20 -78 26 -117 13 -91 13 -475 0 -588 -27 -234 -143 -446 -324 -592 -173 -140
-370 -205 -622 -205 l-71 0 -6 -212 c-10 -388 -75 -662 -232 -983 -113 -233
-241 -414 -418 -594 -147 -150 -800 -713 -972 -839 -509 -372 -1164 -487
-1774 -311 -103 29 -281 98 -364 140 -133 68 -308 190 -454 317 -46 40 -85 72
-89 72 -11 0 -179 141 -188 158 -4 9 -94 89 -199 177 -243 205 -390 351 -503
501 -229 305 -366 622 -435 1011 -16 86 -23 178 -26 339 l-6 221 -131 6 c-163
9 -274 34 -391 92 -181 89 -316 221 -405 400 -89 177 -94 208 -95 590 l0 330
28 79 c15 43 26 80 25 81 -2 1 -32 19 -68 40 -418 247 -619 728 -500 1197 27
104 93 244 161 343 72 105 216 238 327 304 l91 54 -15 36 c-59 135 -84 261
-84 416 0 267 90 504 269 713 97 113 275 236 416 287 71 26 76 30 70 52 -3 13
-1 71 5 129 57 558 515 974 1072 974 116 0 267 -28 366 -67 52 -21 67 -24 70
-13 18 53 103 204 153 269 160 212 407 364 669 410 94 17 363 6 452 -18z"/>
<path d="M5067 5965 c-109 -121 -281 -215 -457 -251 -100 -20 -279 -15 -375
11 -74 20 -217 86 -264 122 -21 16 -36 22 -39 15 -8 -26 -82 -131 -126 -179
-100 -111 -254 -202 -411 -244 -62 -17 -109 -22 -210 -22 -126 0 -150 4 -301
48 -19 6 -25 -2 -48 -61 -51 -128 -161 -290 -260 -383 l-36 -35 0 -1023 c0
-658 4 -1058 11 -1121 50 -456 252 -889 568 -1215 137 -142 902 -793 1036
-883 609 -405 1426 -404 2036 4 124 83 918 761 1036 885 315 329 516 771 563
1236 6 63 10 444 10 981 l0 877 -69 46 c-291 193 -472 528 -475 875 -1 129 12
120 -111 81 -95 -30 -335 -33 -435 -6 -152 43 -296 128 -402 239 l-56 59 -54
-40 c-228 -174 -556 -213 -830 -100 -69 28 -194 105 -218 134 -7 8 -15 15 -19
15 -3 -1 -32 -30 -64 -65z"/>
<path d="M2250 4812 c-178 -74 -406 -99 -593 -67 -48 9 -92 13 -97 10 -4 -3
-17 -29 -27 -58 -16 -46 -18 -87 -18 -352 0 -260 3 -309 18 -365 56 -198 182
-352 362 -440 110 -55 188 -72 325 -74 l115 -1 3 194 2 193 -43 -6 c-60 -9
-139 10 -195 47 -79 54 -137 177 -118 253 25 100 169 98 191 -3 13 -57 27 -82
54 -93 34 -14 72 -1 95 32 21 30 22 175 1 245 -33 111 -146 177 -262 153 -47
-10 -65 -20 -108 -64 -43 -42 -55 -62 -64 -105 -6 -28 -11 -61 -11 -71 0 -33
-42 -71 -86 -77 -33 -4 -45 -1 -71 21 -37 31 -45 66 -33 142 45 277 342 436
596 320 l54 -25 0 115 c0 62 -1 113 -2 113 -2 -1 -41 -17 -88 -37z"/>
<path d="M8741 4674 c-47 -22 -136 -49 -225 -69 l-29 -6 40 -42 c83 -88 123
-178 123 -279 0 -52 -4 -63 -29 -89 -60 -59 -152 -22 -166 67 -12 77 -26 115
-57 150 -116 131 -325 92 -384 -73 -7 -22 -13 -81 -14 -136 0 -97 1 -99 30
-129 24 -24 36 -29 58 -24 37 9 72 51 72 87 0 42 48 89 90 89 74 0 118 -55
106 -132 -24 -148 -135 -242 -283 -242 l-73 1 0 -195 0 -195 123 6 c148 8 215
24 327 79 120 59 239 178 298 298 71 145 76 177 77 490 0 258 -7 371 -23 369
-4 0 -31 -12 -61 -25z"/>
<path d="M8000 4629 c0 -5 5 -7 10 -4 6 3 10 8 10 11 0 2 -4 4 -10 4 -5 0 -10
-5 -10 -11z"/>
</g>
</svg>
