<svg xmlns="http://www.w3.org/2000/svg" xmlns:xlink="http://www.w3.org/1999/xlink" version="1.1" x="0px" y="0px" viewBox="0 0 100 125"
     style="enable-background:new 0 0 100 100;" xml:space="preserve">
    <path d="M72.2172852,65.0422363l-12.2095947-3.7717285c-0.0001831-0.000061-0.0001831-0.0001831-0.0003662-0.0002441  l-1.6474609-0.5087891v-2.3735352l1.8056641-1.5483398c2.5322266-2.1767578,3.984375-5.340332,3.984375-8.6796875v-0.9799805  h0.6899414c2.4482422,0,4.4399414-1.9916992,4.4399414-4.4399414v-2.0898438c0-0.4121094-0.0871582-0.8179321-0.2498169-1.1962891  c1.3373413-1.0083618,2.130188-2.5695801,2.130188-4.2739258c0-1.1831055-0.3974609-2.3256836-1.1269531-3.2612305  c0.7294922-0.9443359,1.1269531-2.0893555,1.1269531-3.2685547c0-2.0693359-1.175293-3.9204102-3.0263672-4.8212891  c0.0244141-0.2016602,0.0361328-0.4033203,0.0361328-0.6088867c0-2.9663086-2.4091797-5.3798828-5.3701172-5.3798828  c-0.5126953,0-1.0166016,0.0732422-1.5043945,0.2182617C60.8867188,15.470459,58.6772461,13.5300293,56,13.5300293  c-1.8837891,0-3.5732422,0.9584961-4.5400391,2.5102539c-0.9667969-1.5517578-2.65625-2.5102539-4.5400391-2.5102539  c-2.2856445,0-4.277832,1.4282227-5.0444336,3.5429688c-0.6948242-0.3208008-1.4243164-0.4829102-2.175293-0.4829102  c-2.9667969,0-5.3803711,2.4135742-5.3803711,5.3798828c0,0.0932617,0.0058594,0.1845703,0.0151367,0.2758789  c-2.2304688,0.6762695-3.8051758,2.7651367-3.8051758,5.1342773c0,0.7817383,0.1762695,1.5424805,0.5249023,2.2680664  c-1.8666992,0.8793945-3.0849609,2.7587891-3.0849609,4.8417969c0,2.0853271,1.2084351,3.953064,3.0537109,4.8397217  c-0.2019043,0.4154053-0.3134766,0.8618164-0.3134766,1.3204346v2.0898438c0,2.4482422,1.9916992,4.4399414,4.4399414,4.4399414  h0.6899414v0.9799805c0,3.3393555,1.4521484,6.5029297,3.9853516,8.6806641l1.8046875,1.5430298v2.3778687l-1.6474609,0.5087891  c-0.0001221,0.000061-0.0002441,0.0001831-0.0003662,0.0002441L27.769043,65.0432129  C22.8232422,66.6081543,19.5,71.1398926,19.5,76.3200684v9.6499023c0,0.2763672,0.2236328,0.5,0.5,0.5h60  c0.2763672,0,0.5-0.2236328,0.5-0.5v-9.6499023C80.5,71.1384277,77.1728516,66.6066895,72.2172852,65.0422363z   M40.6298828,62.1167603l1-0.3088989v1.1318359c0,1.6889648,0.8310547,3.277832,2.2231445,4.25  c1.8071289,1.2626953,3.9291992,1.9301758,6.1367188,1.9301758c0.8303833,0,1.6482544-0.0938721,2.4415283-0.277771  c1.3220825-0.3064575,2.5758057-0.8630371,3.7049561-1.6519165c0.8703613-0.6079102,1.5214233-1.456543,1.8872681-2.4198608  c0.2195435-0.5779419,0.3363647-1.1972656,0.3363647-1.8306274v-1.1318359l1,0.3088989v0.822937  c0,2.0151367-0.9912109,3.9106445-2.6513672,5.0703125c-1.9750977,1.3803711-4.2983398,2.1098633-6.71875,2.1098633  c-2.4135742,0-4.7338867-0.7294922-6.7089844-2.1098633c-0.0004883,0-0.0004883,0-0.0004883,0  c-1.659668-1.159668-2.6503906-3.0551758-2.6503906-5.0703125V62.1167603z M64.1499023,40.3083496  c0.0404053,0.0130005,0.0844116,0.0147705,0.1252441,0.0267334c-0.041748,0.0227661-0.0852661,0.0426025-0.1252441,0.0680542  V40.3083496z M68.2797852,42.7399902c0,1.8969727-1.5429688,3.4399414-3.4399414,3.4399414h-0.6899414v-1.960144  c0.1266479,0.0380249,0.2581177,0.0646362,0.3969727,0.0646362c0.7685547,0,1.3935547-0.625,1.3935547-1.3935547  c0-0.2763672-0.2236328-0.5-0.5-0.5s-0.5,0.2236328-0.5,0.5c0,0.2167969-0.1767578,0.3935547-0.3935547,0.3935547  s-0.3930664-0.1767578-0.3930664-0.3935547c0-0.006897-0.0036011-0.0125732-0.0039063-0.0194092v-0.6501465  c0.0003052-0.0068359,0.0039063-0.0125122,0.0039063-0.0194092c0-0.6254883,0.5087891-1.1342773,1.1342773-1.1342773  c0.625,0,1.1337891,0.5087891,1.1337891,1.1342773c0,0.2763672,0.2236328,0.5,0.5,0.5s0.5-0.2236328,0.5-0.5  c0-0.6967163-0.340332-1.310791-0.8582764-1.7005615c0.2025146-0.0296631,0.401062-0.0764771,0.5977783-0.1287842  c0.0181885-0.0048218,0.0367432-0.0068359,0.0548706-0.0117798c0.3042603-0.0844116,0.5982666-0.1981201,0.8827515-0.335144  c0.0235596-0.0113525,0.0499878-0.0161133,0.0733643-0.027832c0.0712891,0.2084961,0.1074219,0.4267578,0.1074219,0.6523438  V42.7399902z M28.9697266,34.4899902c0-1.8525391,1.1870117-3.5068359,2.953125-4.1171875  c0.1430664-0.0493164,0.2558594-0.1606445,0.3071289-0.3032227c0.0512695-0.1420898,0.0356445-0.2998047-0.0429688-0.4291992  c-0.4360352-0.7177734-0.6572266-1.4785156-0.6572266-2.2602539c0-2.0551758,1.4560547-3.8515625,3.4624023-4.2709961  c0.2563477-0.0537109,0.4282227-0.2963867,0.3930664-0.5566406l-0.0214844-0.1489258  c-0.0214844-0.1445313-0.0439453-0.2866211-0.0439453-0.4335938c0-2.4150391,1.9648438-4.3798828,4.3803711-4.3798828  c0.7719727,0,1.519043,0.2148438,2.2211914,0.6381836c0.137207,0.0820313,0.3056641,0.0952148,0.4521484,0.0327148  c0.1474609-0.0620117,0.2558594-0.1904297,0.2929688-0.3461914c0.4707031-1.9926758,2.2197266-3.3847656,4.253418-3.3847656  c1.8212891,0,3.4204102,1.1025391,4.0732422,2.8085938c0.1474609,0.3867188,0.7861328,0.3867188,0.9335938,0  C52.5795898,15.6325684,54.1787109,14.5300293,56,14.5300293c2.3632813,0,4.2788086,1.8608398,4.3603516,4.2368164  c0.0053711,0.1660156,0.0932617,0.3178711,0.2333984,0.40625c0.140625,0.0883789,0.3168945,0.1010742,0.4672852,0.0341797  c0.5541992-0.2436523,1.1391602-0.3671875,1.7387695-0.3671875c2.409668,0,4.3701172,1.9648438,4.3701172,4.3798828  c0,0.2744141-0.0263672,0.5405273-0.0800781,0.8129883c-0.046875,0.2358398,0.0810547,0.472168,0.3046875,0.5615234  c1.6801758,0.671875,2.765625,2.2636719,2.765625,4.0556641c0,1.074707-0.4086914,2.1166992-1.1503906,2.934082  c-0.1738281,0.1914063-0.1728516,0.4838867,0.0019531,0.6743164c0.7407227,0.8061523,1.1484375,1.8432617,1.1484375,2.9213867  c0,1.5141602-0.7612305,2.8959961-2.0400391,3.6987305c-0.1503906,0.0963745-0.3067017,0.1826172-0.4675903,0.2585449  c-1.1263428,0.5308228-2.4783936,0.5608521-3.607605,0.0622559c-0.0510864-0.0219116-0.0947876-0.0438843-0.145874-0.072937  c-0.0114746-0.0062866-0.019043-0.0099487-0.0323486-0.017395c-1.4921875-0.7182617-2.456543-2.2602539-2.456543-3.9291992  c0-0.4951172,0.0805664-0.965332,0.2387695-1.3974609c0.0786133-0.2138672,0.0024414-0.4536133-0.1845703-0.5834961  c-0.0859375-0.0595703-0.1855469-0.0888672-0.284668-0.0888672c-0.0061646,0-0.0119629,0.0029907-0.0181274,0.0032349  c-0.008606,0.0003662-0.0157471,0.00354-0.024353,0.0043335c-0.1018677,0.0088501-0.2019653,0.043335-0.2836914,0.1135254  c-0.5830078,0.5024414-1.3300781,0.7788086-2.1035156,0.7788086c-1.1743164,0-2.2558594-0.6367188-2.8227539-1.6621094  c-0.0800781-0.1445313-0.2260742-0.2402344-0.390625-0.2558594c-0.159668-0.0126953-0.3261719,0.0522461-0.4316406,0.1787109  c-0.6108398,0.7368164-1.5126953,1.1591797-2.4750977,1.1591797c-0.9936523,0-1.9150391-0.4448242-2.5273438-1.2202148  c-0.0949097-0.1195068-0.2385864-0.1800537-0.3901978-0.1804199c-0.0164795-0.000061-0.0317993-0.0092773-0.0482788-0.0075684  c-0.000061,0-0.000061,0.000061-0.0001221,0.000061c-0.0001221,0-0.0002441-0.000061-0.0003662-0.000061  c-0.168457,0.015625-0.3173828,0.1157227-0.3959961,0.265625c-0.5585938,1.0625-1.6533203,1.7226563-2.8574219,1.7226563  c-0.9208984,0-1.7739258-0.3759766-2.402832-1.059082c-0.1220703-0.1323242-0.3071289-0.1865234-0.4799805-0.1484375  c-0.175293,0.0405273-0.3154297,0.171875-0.3666992,0.3442383c-0.409668,1.371582-1.6518555,2.2929688-3.0908203,2.2929688  c-0.5991211,0-1.1640625-0.1601563-1.6782227-0.4760742c-0.1416016-0.0864258-0.3154297-0.0976563-0.4648438-0.0307617  c-0.1508789,0.0673828-0.2587891,0.2041016-0.2885742,0.3662109c-0.1938477,1.0507813-0.7636719,1.9863281-1.6088867,2.6386719  c-0.21875,0.1733398-0.4506836,0.3242188-0.6860352,0.4462891c-0.7844849,0.3985596-1.6588135,0.5489502-2.5234985,0.4468384  c-0.3084106-0.0366821-0.6161499-0.1018066-0.9191895-0.2045898C30.1477051,38.0153198,28.9697266,36.3540039,28.9697266,34.4899902  z M35.1499023,46.1799316c-1.8969727,0-3.4399414-1.5429688-3.4399414-3.4399414v-2.0898438  c0-0.3334961,0.0844727-0.6611328,0.2460938-0.9628906c0.1361084,0.0360718,0.2747803,0.0442505,0.4121094,0.069397  c0.1362915,0.0248413,0.2709351,0.0543823,0.4077759,0.0687256c0.2184448,0.0228882,0.4356689,0.0222168,0.6539917,0.0183105  c0.1279907-0.0021362,0.2553711,0.0048218,0.3827515-0.0064087c0.2302246-0.0205688,0.4558716-0.0685425,0.6820068-0.1184082  c0.1120605-0.0246582,0.225769-0.0359497,0.3363647-0.067749c0.331604-0.095459,0.6566162-0.218811,0.9692383-0.3774414  c0.0131836-0.0068359,0.0263672-0.0136719,0.0395508-0.0209961v1.1499023  c-0.3300171-0.2093506-0.7183228-0.3349609-1.137207-0.3349609c-1.1767578,0-2.1342773,0.9575195-2.1342773,2.1342773  c0,0.2763672,0.2236328,0.5,0.5,0.5s0.5-0.2236328,0.5-0.5c0-0.6254883,0.5087891-1.1342773,1.1342773-1.1342773  s1.1342773,0.5087891,1.1342773,1.1342773c0,0.005188,0.0027466,0.0093994,0.0029297,0.0145264v0.6599121  c-0.0001831,0.005127-0.0029297,0.0093384-0.0029297,0.0145264c0,0.2167969-0.1767578,0.3935547-0.3935547,0.3935547  s-0.3930664-0.1767578-0.3930664-0.3935547c0-0.2763672-0.2236328-0.5-0.5-0.5s-0.5,0.2236328-0.5,0.5  c0,0.7685547,0.625,1.3935547,1.3930664,1.3935547c0.1386719,0,0.2699585-0.0265503,0.3964844-0.0644531v1.9599609H35.1499023z   M36.8398438,48.1599121v-1.4799805v-8.1118164c0.0812988-0.0690918,0.1507568-0.1491089,0.227356-0.2226563  c0.079834-0.0765991,0.1618042-0.1504517,0.2364502-0.2316284c0.1056519-0.1148682,0.1999512-0.2379761,0.2947388-0.3613892  c0.062439-0.0812378,0.1292725-0.1585693,0.1868286-0.2432251c0.0970459-0.1428223,0.1799316-0.2940674,0.2626953-0.4458008  c0.0408936-0.0748901,0.088623-0.1455078,0.1259155-0.2224121c0.112793-0.232666,0.2106934-0.4730225,0.2890625-0.7216187  c0.5083008,0.2104492,1.0541992,0.3203125,1.6069336,0.3203125c1.6240234,0,3.0566406-0.8974609,3.765625-2.2958984  c0.7368164,0.5629883,1.6279297,0.8662109,2.574707,0.8662109c1.3442383,0,2.5849609-0.6289063,3.375-1.6777344  c0.7705078,0.7041016,1.7758789,1.0976563,2.8447266,1.0976563c1.0380859,0,2.0229492-0.3754883,2.7856445-1.0473633  c0.7924805,1.0170898,2.019043,1.6274414,3.3344727,1.6274414c0.5844727,0,1.1577148-0.1206055,1.6850586-0.3496094  c-0.0166016,0.1708984-0.0249023,0.3442383-0.0249023,0.5195313c0,0.2497559,0.0188599,0.4968872,0.0531006,0.7404785  c0.012085,0.0859375,0.0358887,0.1685181,0.052063,0.253418c0.029541,0.1552734,0.0571289,0.3109131,0.0999756,0.4621582  c0.0299072,0.105835,0.0717163,0.206665,0.1079102,0.3101196c0.043335,0.1235962,0.0830688,0.2484131,0.1351318,0.3682251  c0.0509033,0.1175537,0.112915,0.2286987,0.171814,0.3421021c0.0510254,0.0979614,0.0983887,0.1973877,0.1552124,0.2919312  c0.0731201,0.1219482,0.156189,0.2363281,0.2385254,0.3520508c0.0552368,0.0773926,0.1073608,0.1564331,0.166626,0.230835  c0.093689,0.1178589,0.1958618,0.2272949,0.2990723,0.336853c0.0603638,0.0640259,0.1186523,0.1293945,0.1821899,0.1904297  c0.1075439,0.1032715,0.2218018,0.197998,0.3378906,0.2918701c0.0736084,0.0596924,0.1461182,0.1196899,0.2230835,0.1754761  c0.1079102,0.0779419,0.2202759,0.1485596,0.3344727,0.2180786c0.0620728,0.038208,0.1187744,0.083374,0.1826782,0.1190796  v6.8168945v1.4799805c0,3.0478516-1.3251953,5.9350586-3.6347656,7.9199219l-1.9628296,1.6832275  c-0.0056763,0.0044556-0.0135498,0.0039063-0.019104,0.008667l-1.5283203,1.3183594  c-0.7915039,0.6777344-1.6713867,1.2075195-2.6171875,1.5742188c-2.1831055,0.8535156-4.625,0.8486328-6.7788086-0.0009766  c-0.9360352-0.3598633-1.8154297-0.8891602-2.6137695-1.5732422l-1.5400391-1.3198242  c-0.0021973-0.0018921-0.0053711-0.0015869-0.0075684-0.003418l-1.9719238-1.6860352  C38.1650391,54.0949707,36.8398438,51.2077637,36.8398438,48.1599121z M43.3447266,59.8498535  c0.8847656,0.7583008,1.862793,1.3461914,2.9013672,1.7456055C47.4316406,62.0627441,48.7294922,62.3098145,50,62.3098145  c1.2783203,0,2.5405273-0.2402344,3.7509766-0.7133789c1.0498047-0.4077148,2.0273438-0.9956055,2.9057617-1.7480469  l0.703125-0.6029053v1.8846436v1.8095703c0,1.3623047-0.6713867,2.6450195-1.7963867,3.4306641  c-1.6376953,1.1445313-3.5654297,1.7495117-5.5737305,1.7495117c-0.5003662,0-0.9959106-0.0378418-1.4833374-0.1124268  c-1.4624023-0.2238159-2.8519897-0.7788086-4.0806274-1.6375732c-1.1245117-0.7851563-1.7958984-2.0678711-1.7958984-3.4301758  V61.130127v-1.8914795L43.3447266,59.8498535z M79.5,85.4699707H68.190918v-5.0546875c0-0.2763672-0.2236328-0.5-0.5-0.5  s-0.5,0.2236328-0.5,0.5v5.0546875H32.809082v-5.0546875c0-0.2763672-0.2236328-0.5-0.5-0.5s-0.5,0.2236328-0.5,0.5v5.0546875H20.5  v-9.1499023c0-4.7421875,3.0424805-8.890625,7.5673828-10.3227539l11.5625-3.5716553v0.5140381  c0,2.3417969,1.1503906,4.543457,3.078125,5.8896484h-0.0004883c2.1445313,1.4985352,4.6625977,2.2905273,7.2822266,2.2905273  c2.6264648,0,5.1479492-0.7919922,7.2915039-2.2900391c1.9277344-1.3466797,3.0786133-3.5483398,3.0786133-5.8901367v-0.5140381  l11.5595703,3.5706787C76.4536133,67.4279785,79.5,71.5769043,79.5,76.3200684V85.4699707z"/>
</svg>